<?xml version="1.0" encoding="UTF-8"?>
<svg width="82px" height="94px" viewBox="0 0 82 94" version="1.1" xmlns="http://www.w3.org/2000/svg" xmlns:xlink="http://www.w3.org/1999/xlink">
    <title>编组 4备份 10</title>
    <g id="订阅-抽奖插件-前端-正稿" stroke="none" stroke-width="1" fill="none" fill-rule="evenodd">
        <g id="订阅礼盒抽奖-PC-1" transform="translate(-961.000000, -462.000000)">
            <g id="编组-6" transform="translate(605.000000, 351.000000)">
                <g id="编组-2" transform="translate(356.000000, 111.000000)">
                    <polygon id="Fill-1" fill="#FF5000" points="1.72918527 94 80.205716 94 80.205716 21.6685591 1.72918527 21.6685591"></polygon>
                    <path d="M80.2054108,36.6937969 L80.2054108,21.6690637 L1.72888012,21.6690637 L1.72888012,36.6937969 C42.5702019,22.0959199 80.2054108,36.6937969 80.2054108,36.6937969" id="Fill-2" fill="#C73129"></path>
                    <polygon id="Fill-4" fill="#FF5000" points="0 21.6685591 82 21.6685591 82 10.8437682 0 10.8437682"></polygon>
                    <polygon id="Fill-6" fill="#FFD589" points="38.2973851 94 43.636499 94 43.636499 10.8437682 38.2973851 10.8437682"></polygon>
                    <polygon id="Fill-7" fill="#FFD589" points="1.72918527 62.5851993 80.205716 62.5851993 80.205716 57.664748 1.72918527 57.664748"></polygon>
                    <path d="M35.2454748,22.8465006 C35.0349211,17.1843489 34.9983031,11.5080695 35.1356207,5.82573538 C37.5524114,5.75005165 39.9630991,5.80958952 42.3554778,6.00333985 C41.5783616,11.6331999 40.9741639,17.2771876 40.5449191,22.92723 C39.7301677,22.0472805 38.8686266,21.1885225 37.9613129,20.3549924 C37.0082267,21.1592581 36.1029473,21.99077 35.2454748,22.8465006" id="Fill-8" fill="#F1B64A"></path>
                    <path d="M47.8736132,23.0214814 C48.2428451,17.3663935 48.4391585,11.6941505 48.4615362,6.01080732 C46.0457626,5.86650368 43.6340578,5.86044898 41.2376104,5.98759764 C41.8550313,11.63764 42.3005508,17.2957553 42.5711174,22.9558889 C43.4102808,22.09814 44.2952168,21.2636008 45.2259254,20.4552986 C46.1566339,21.2858013 47.0395356,22.1425411 47.8736132,23.0214814" id="Fill-9" fill="#F1B64A"></path>
                    <path d="M40.9085486,4.06402008 C40.9359184,4.10640296 34.9254739,0.759164071 26.3436291,0.112320498 C22.4326188,-0.228760824 17.7099087,0.0911290552 16.1566935,2.9782109 C14.2077999,7.33860259 20.8580431,14.8212002 22.4010866,16.2390087 C23.5657438,17.1038214 25.8228391,17.3116994 27.7686812,15.8171981 C34.7291605,10.8422545 36.1654014,10.5465834 40.9085486,9.01878129 L40.9085486,4.06402008 Z" id="Fill-10" fill="#E99F1C"></path>
                    <path d="M40.9085486,4.06402008 C40.9359184,4.10640296 34.9254739,0.759164071 26.3436291,0.112320498 C22.433636,-0.232797289 17.6112434,0.0840652408 16.1566935,2.9782109 C14.1528729,7.21044482 20.8376997,15.0058685 22.4010866,16.2390087 C18.6884241,11.1015974 40.8779399,7.83004225 40.9085486,9.01878129 L40.9085486,4.06402008 Z" id="Fill-11" fill="#F9C973"></path>
                    <path d="M40.9084549,5.07172365 C41.139352,4.73165145 28.4644239,1.49036977 28.5478317,4.48441794 C28.9567332,8.16769258 40.860648,6.52182383 40.9084549,6.86290515 L40.9084549,5.07172365 Z" id="Fill-12" fill="#F4AE2E"></path>
                    <path d="M40.9083612,4.06402008 C40.8809914,4.10640296 46.8914359,0.759164071 55.4732807,0.112320498 C59.384291,-0.228760824 64.1080183,0.0911290552 65.6602163,2.9782109 C67.6091099,7.33860259 60.9588667,14.8212002 59.4168403,16.2390087 C58.251166,17.1038214 55.9940707,17.3116994 54.0482286,15.8171981 C47.0887665,10.8422545 45.6515084,10.5465834 40.9083612,9.01878129 L40.9083612,4.06402008 Z" id="Fill-13" fill="#E99F1C"></path>
                    <path d="M40.9083612,4.06402008 C40.8809914,4.10640296 46.8914359,0.759164071 55.4732807,0.112320498 C59.3832738,-0.232797289 64.2056664,0.0840652408 65.6602163,2.9782109 C67.6640369,7.21044482 60.9792101,15.0058685 59.4168403,16.2390087 C63.1284857,11.1015974 40.9389699,7.83004225 40.9083612,9.01878129 L40.9083612,4.06402008 Z" id="Fill-14" fill="#F9C973"></path>
                    <path d="M40.9084549,5.07172365 C40.6775578,4.73165145 53.3524859,1.49036977 53.2700953,4.48441794 C52.8601766,8.16769258 40.9562618,6.52182383 40.9084549,6.86290515 L40.9084549,5.07172365 Z" id="Fill-15" fill="#F4AE2E"></path>
                    <path d="M40.9084549,9.74473959 L40.9084549,9.74473959 C39.957403,9.74373047 38.9483725,3.61133049 38.9249777,3.6123396 C38.9005656,2.86054793 39.8007592,2.84036561 40.9084549,2.84036561 C42.0161506,2.84036561 42.9163442,2.86054793 42.8919321,3.6123396 C42.8685373,3.61133049 41.8595068,9.74373047 40.9084549,9.74473959" id="Fill-16" fill="#E99F1C"></path>
                </g>
            </g>
        </g>
    </g>
</svg>